<svg width="225" height="79" viewBox="0 0 225 79" fill="none" xmlns="http://www.w3.org/2000/svg">
<path d="M0 0H225V79H8C3.58172 79 0 75.4183 0 71V0Z" fill="#E78345"/>
<rect x="7" y="6" width="66" height="66" rx="33" fill="#FEEFDC"/>
<rect x="7" y="6" width="66" height="66" rx="33" stroke="#F17B33" stroke-width="2"/>
<g clip-path="url(#clip0_60_394)">
<path d="M36.4 30.1772C36.0796 29.7501 35.6766 29.3919 35.2148 29.1239L35.1591 29.1796C34.8412 29.4984 34.4401 29.7216 34.0015 29.8236C34.6341 30.0016 35.1848 30.3949 35.5582 30.9357L39.9055 38.2974C39.9571 38.3879 39.9886 38.4884 39.9977 38.5921C40.0068 38.6959 39.9934 38.8004 39.9584 38.8984C39.9087 39.0307 39.8318 39.151 39.7327 39.2516C39.6336 39.3522 39.5144 39.4309 39.3829 39.4826C38.9847 39.6508 38.6967 39.3721 38.5001 39.0298L34.8573 32.966C34.8196 32.9021 34.7696 32.8462 34.7101 32.8017C34.6507 32.7572 34.5831 32.7249 34.5111 32.7066C34.4391 32.6884 34.3642 32.6846 34.2907 32.6954C34.2173 32.7062 34.1467 32.7315 34.083 32.7698C34.0194 32.8081 33.964 32.8585 33.9199 32.9183C33.8759 32.9781 33.8441 33.0461 33.8265 33.1182C33.8088 33.1903 33.8057 33.2652 33.8171 33.3386C33.8286 33.412 33.8544 33.4824 33.8932 33.5457L36.0625 37.1569V43.7812C36.0623 43.9304 36.003 44.0733 35.8976 44.1788C35.7921 44.2843 35.6491 44.3436 35.5 44.3437H27.625C27.4759 44.3436 27.3329 44.2843 27.2274 44.1788C27.122 44.0733 27.0626 43.9304 27.0625 43.7812V37.1572L29.2323 33.546C29.2704 33.4826 29.2956 33.4124 29.3065 33.3394C29.3175 33.2663 29.3139 33.1918 29.296 33.1201C29.2782 33.0484 29.2464 32.981 29.2024 32.9216C29.1585 32.8622 29.1033 32.812 29.04 32.7739C28.9766 32.7359 28.9064 32.7107 28.8334 32.6997C28.7603 32.6888 28.6858 32.6924 28.6141 32.7102C28.5424 32.7281 28.475 32.7599 28.4156 32.8038C28.3562 32.8478 28.306 32.903 28.2679 32.9663L24.6198 39.0393C24.4401 39.3521 24.1232 39.6362 23.9015 39.5493C23.7389 39.5012 23.5888 39.418 23.462 39.3055C23.3351 39.193 23.2346 39.0539 23.1675 38.8982C23.1323 38.7989 23.1191 38.6931 23.1288 38.5882C23.1385 38.4833 23.1709 38.3818 23.2237 38.2907L27.5673 30.9354C27.9408 30.3946 28.4914 30.0013 29.1241 29.8233C28.6855 29.7213 28.2844 29.4981 27.9664 29.1793L27.9107 29.1236C27.4489 29.3918 27.0459 29.7502 26.7256 30.1774C26.6974 30.2073 22.2385 37.7478 22.2385 37.7478C22.1093 37.9762 22.0304 38.2296 22.0071 38.4909C21.9838 38.7523 22.0165 39.0156 22.1032 39.2632C22.3521 39.9891 23.1987 40.6878 23.9867 40.6878C24.5926 40.6878 25.1967 40.294 25.5899 39.6089L25.9375 39.0298V43.7812C25.9378 44.0771 26.016 44.3676 26.1641 44.6237C26.3122 44.8798 26.525 45.0925 26.7812 45.2403V55.3125C26.7818 55.7599 26.9597 56.1888 27.2761 56.5051C27.5924 56.8215 28.0214 56.9994 28.4687 57H29.0312C29.4786 56.9994 29.9076 56.8215 30.2239 56.5051C30.5403 56.1888 30.7182 55.7599 30.7187 55.3125V45.4687H32.4062V55.3125C32.4068 55.7599 32.5847 56.1888 32.9011 56.5051C33.2174 56.8215 33.6464 56.9994 34.0937 57H34.6562C35.1036 56.9994 35.5326 56.8215 35.8489 56.5051C36.1653 56.1888 36.3432 55.7599 36.3437 55.3125V45.2403C36.6 45.0925 36.8128 44.8798 36.9609 44.6237C37.109 44.3676 37.1872 44.0771 37.1875 43.7812V39.0295L37.5298 39.5993C37.9263 40.2903 38.5288 40.6852 39.1397 40.6852C39.5579 40.6575 39.9589 40.5081 40.2933 40.2555C40.6278 40.003 40.8812 39.6581 41.0223 39.2635C41.1089 39.0168 41.1418 38.7545 41.119 38.4941C41.0961 38.2336 41.018 37.9811 40.8899 37.7532C40.8899 37.7532 36.4281 30.207 36.4 30.1772ZM29.594 55.3125C29.5939 55.4616 29.5346 55.6046 29.4291 55.7101C29.3237 55.8155 29.1807 55.8748 29.0315 55.875H28.469C28.3199 55.8748 28.1769 55.8155 28.0714 55.7101C27.966 55.6046 27.9067 55.4616 27.9065 55.3125V45.4687H29.594V55.3125ZM35.219 55.3125C35.2189 55.4616 35.1596 55.6046 35.0541 55.7101C34.9487 55.8155 34.8057 55.8748 34.6565 55.875H34.094C33.9449 55.8748 33.8019 55.8155 33.6964 55.7101C33.591 55.6046 33.5317 55.4616 33.5315 55.3125V45.4687H35.219V55.3125ZM51.8128 24.375C49.4866 24.375 47.594 26.0802 47.594 28.1769C47.594 29.1374 48.0539 29.9184 48.4985 30.6738C48.602 30.8499 48.7058 31.0254 48.8023 31.2029C49.2905 32.1015 49.3389 32.8417 49.2573 33.8942C49.2525 33.9712 49.2633 34.0485 49.2892 34.1212C49.3151 34.194 49.3555 34.2607 49.408 34.3174C49.4604 34.3741 49.5239 34.4195 49.5944 34.4508C49.665 34.4822 49.7412 34.4989 49.8184 34.5H53.8066C53.9578 34.4966 54.1015 34.4338 54.2068 34.3252C54.3121 34.2166 54.3704 34.071 54.3691 33.9198C54.3376 33.0026 54.2501 32.0106 54.6818 31.1655C54.8242 30.9008 54.9816 30.6444 55.1532 30.3977C55.5647 29.7798 56.0312 29.0794 56.0312 28.1769C56.0312 26.0802 54.139 24.375 51.8128 24.375ZM54.2169 29.7741C54.0209 30.0567 53.8416 30.3505 53.6797 30.6539C53.2227 31.5494 53.2008 32.5031 53.2252 33.375H50.4119C50.4662 32.4312 50.2506 31.4914 49.7903 30.6657C49.6861 30.4764 49.5786 30.2888 49.468 30.1032C49.0827 29.4487 48.7188 28.8305 48.7188 28.1763C48.7188 26.7009 50.1067 25.5 51.8125 25.5C53.5186 25.5 54.9062 26.7009 54.9062 28.1769C54.9062 28.7391 54.5868 29.2184 54.2169 29.7741ZM57.9969 27.026C57.988 26.8798 57.9236 26.7425 57.8169 26.6421C57.7101 26.5417 57.5691 26.4859 57.4226 26.486C57.3481 26.488 57.2748 26.5047 57.2068 26.5352C57.1388 26.5656 57.0775 26.6092 57.0264 26.6634C56.9753 26.7176 56.9354 26.7814 56.9091 26.851C56.8827 26.9207 56.8703 26.9949 56.8727 27.0693C56.8744 27.1087 56.875 27.1481 56.875 27.1875C56.875 27.3367 56.9343 27.4797 57.0398 27.5852C57.1452 27.6907 57.2883 27.75 57.4375 27.75C57.5867 27.75 57.7298 27.6907 57.8352 27.5852C57.9407 27.4797 58 27.3367 58 27.1875C58 27.1338 57.9989 27.0795 57.9969 27.026ZM56.0372 23.4848C55.9475 23.4164 55.8557 23.3503 55.7615 23.2865C55.7004 23.2437 55.6314 23.2135 55.5585 23.1976C55.4855 23.1817 55.4102 23.1805 55.3368 23.1941C55.2634 23.2076 55.1935 23.2356 55.131 23.2764C55.0685 23.3173 55.0148 23.3701 54.973 23.4319C54.9312 23.4937 54.902 23.5632 54.8873 23.6364C54.8726 23.7095 54.8726 23.7849 54.8873 23.8581C54.902 23.9312 54.9311 24.0007 54.973 24.0625C55.0148 24.1243 55.0685 24.1772 55.131 24.218C55.2075 24.2698 55.2818 24.3232 55.354 24.3783C55.4734 24.4666 55.6224 24.5049 55.7696 24.4853C55.9168 24.4657 56.0505 24.3896 56.1426 24.2732C56.2332 24.1546 56.2729 24.005 56.2531 23.8571C56.2333 23.7093 56.1557 23.5754 56.0372 23.4848ZM47.9338 24.4917C48.0573 24.4918 48.1774 24.4509 48.2752 24.3755C48.3472 24.3207 48.4215 24.267 48.4974 24.2158C48.5596 24.1749 48.613 24.122 48.6546 24.0603C48.6961 23.9986 48.7251 23.9292 48.7396 23.8563C48.7542 23.7833 48.7542 23.7082 48.7395 23.6352C48.7249 23.5622 48.6959 23.4929 48.6543 23.4312C48.6126 23.3696 48.5592 23.3168 48.497 23.2759C48.4348 23.235 48.3651 23.2069 48.292 23.1932C48.2188 23.1794 48.1437 23.1803 48.0709 23.1958C47.9981 23.2113 47.9292 23.2411 47.868 23.2834C47.7733 23.3474 47.6811 23.4137 47.5915 23.4823C47.4981 23.5538 47.4295 23.6527 47.3953 23.7653C47.3611 23.8778 47.363 23.9982 47.4008 24.1096C47.4385 24.221 47.5103 24.3177 47.6059 24.3862C47.7015 24.4547 47.8162 24.4915 47.9338 24.4914V24.4917ZM51.6736 23.2514C51.7679 23.251 51.8622 23.2512 51.9565 23.2519H51.9689C52.1181 23.2535 52.2617 23.1957 52.3683 23.0913C52.4749 22.9869 52.5356 22.8444 52.5371 22.6952C52.5387 22.546 52.4809 22.4023 52.3765 22.2958C52.2721 22.1892 52.1296 22.1285 51.9804 22.1269C51.9804 22.1269 51.7034 22.1255 51.6491 22.1267C51.5752 22.1283 51.5024 22.1444 51.4348 22.1742C51.3671 22.2039 51.306 22.2467 51.2549 22.3001C51.2038 22.3535 51.1638 22.4164 51.137 22.4853C51.1103 22.5542 51.0973 22.6277 51.099 22.7015C51.104 22.8501 51.1669 22.9908 51.2742 23.0936C51.3816 23.1964 51.5249 23.2529 51.6736 23.2514ZM46.75 27.1875C46.75 27.147 46.7506 27.1073 46.752 27.0671C46.7558 26.9925 46.7448 26.918 46.7195 26.8477C46.6943 26.7775 46.6553 26.713 46.6048 26.6579C46.5544 26.6029 46.4935 26.5585 46.4257 26.5272C46.3579 26.496 46.2845 26.4786 46.2099 26.4759C46.1353 26.4733 46.0609 26.4856 45.9911 26.512C45.9213 26.5384 45.8574 26.5785 45.8032 26.6299C45.7491 26.6812 45.7056 26.7428 45.6755 26.8112C45.6454 26.8795 45.6292 26.9531 45.6278 27.0277C45.6258 27.0812 45.625 27.134 45.625 27.1875C45.625 27.3367 45.6843 27.4797 45.7898 27.5852C45.8952 27.6907 46.0383 27.75 46.1875 27.75C46.3367 27.75 46.4798 27.6907 46.5852 27.5852C46.6907 27.4797 46.75 27.3367 46.75 27.1875ZM53.2188 35.625H50.4062C50.2571 35.625 50.114 35.6842 50.0085 35.7897C49.903 35.8952 49.8438 36.0383 49.8438 36.1875C49.8438 36.3367 49.903 36.4797 50.0085 36.5852C50.114 36.6907 50.2571 36.75 50.4062 36.75H53.2188C53.3679 36.75 53.511 36.6907 53.6165 36.5852C53.722 36.4797 53.7812 36.3367 53.7812 36.1875C53.7812 36.0383 53.722 35.8952 53.6165 35.7897C53.511 35.6842 53.3679 35.625 53.2188 35.625ZM53.2188 37.875H50.4062C50.2571 37.875 50.114 37.9342 50.0085 38.0397C49.903 38.1452 49.8438 38.2883 49.8438 38.4375C49.8438 38.5867 49.903 38.7297 50.0085 38.8352C50.114 38.9407 50.2571 39 50.4062 39H53.2188C53.3679 39 53.511 38.9407 53.6165 38.8352C53.722 38.7297 53.7812 38.5867 53.7812 38.4375C53.7812 38.2883 53.722 38.1452 53.6165 38.0397C53.511 37.9342 53.3679 37.875 53.2188 37.875ZM43.375 29.3165C43.2637 29.3165 43.155 29.3495 43.0625 29.4113C42.97 29.4731 42.8979 29.561 42.8553 29.6638C42.8127 29.7666 42.8016 29.8797 42.8233 29.9888C42.845 30.0979 42.8986 30.1981 42.9773 30.2768C43.0559 30.3554 43.1561 30.409 43.2653 30.4307C43.3744 30.4524 43.4875 30.4413 43.5903 30.3987C43.693 30.3561 43.7809 30.284 43.8427 30.1915C43.9045 30.099 43.9375 29.9903 43.9375 29.879C43.9375 29.7298 43.8782 29.5868 43.7727 29.4813C43.6673 29.3758 43.5242 29.3165 43.375 29.3165ZM39.4234 26.0625C39.5347 26.0625 39.6434 26.0295 39.7359 25.9677C39.8284 25.9059 39.9005 25.818 39.9431 25.7152C39.9857 25.6124 39.9968 25.4993 39.9751 25.3902C39.9534 25.2811 39.8998 25.1809 39.8212 25.1022C39.7425 25.0236 39.6423 24.97 39.5332 24.9483C39.4241 24.9266 39.311 24.9377 39.2082 24.9803C39.1054 25.0229 39.0175 25.095 38.9557 25.1875C38.8939 25.28 38.8609 25.3887 38.8609 25.5C38.8609 25.6492 38.9202 25.7922 39.0257 25.8977C39.1312 26.0032 39.2743 26.0625 39.4234 26.0625ZM37.4631 26.0625C37.5744 26.0625 37.6831 26.0295 37.7756 25.9677C37.8681 25.9059 37.9402 25.818 37.9828 25.7152C38.0254 25.6124 38.0365 25.4993 38.0148 25.3902C37.9931 25.2811 37.9395 25.1809 37.8609 25.1022C37.7822 25.0236 37.682 24.97 37.5729 24.9483C37.4637 24.9266 37.3506 24.9377 37.2479 24.9803C37.1451 25.0229 37.0572 25.095 36.9954 25.1875C36.9336 25.28 36.9006 25.3887 36.9006 25.5C36.9011 25.649 36.9605 25.7918 37.0659 25.8972C37.1713 26.0026 37.3141 26.062 37.4631 26.0625ZM43.375 31.2797C43.2637 31.2797 43.155 31.3126 43.0625 31.3745C42.97 31.4363 42.8979 31.5241 42.8553 31.6269C42.8127 31.7297 42.8016 31.8428 42.8233 31.9519C42.845 32.061 42.8986 32.1612 42.9773 32.2399C43.0559 32.3186 43.1561 32.3721 43.2653 32.3938C43.3744 32.4156 43.4875 32.4044 43.5903 32.3618C43.693 32.3193 43.7809 32.2472 43.8427 32.1547C43.9045 32.0622 43.9375 31.9534 43.9375 31.8422C43.9378 31.7682 43.9234 31.695 43.8952 31.6266C43.867 31.5582 43.8256 31.4961 43.7733 31.4438C43.721 31.3915 43.6589 31.3501 43.5906 31.3219C43.5222 31.2938 43.4489 31.2794 43.375 31.2797ZM43.375 39.1293C43.2637 39.1293 43.155 39.1623 43.0625 39.2241C42.97 39.2859 42.8979 39.3738 42.8553 39.4766C42.8127 39.5794 42.8016 39.6925 42.8233 39.8016C42.845 39.9107 42.8986 40.0109 42.9773 40.0896C43.0559 40.1683 43.1561 40.2218 43.2653 40.2435C43.3744 40.2652 43.4875 40.2541 43.5903 40.2115C43.693 40.169 43.7809 40.0969 43.8427 40.0044C43.9045 39.9119 43.9375 39.8031 43.9375 39.6918C43.9378 39.6179 43.9234 39.5446 43.8952 39.4763C43.867 39.4079 43.8256 39.3458 43.7733 39.2935C43.721 39.2412 43.6589 39.1998 43.5906 39.1716C43.5222 39.1435 43.4489 39.1291 43.375 39.1293ZM42.8125 27.9187C42.8125 28.03 42.8455 28.1387 42.9073 28.2312C42.9691 28.3237 43.057 28.3958 43.1597 28.4384C43.2625 28.481 43.3756 28.4921 43.4847 28.4704C43.5939 28.4487 43.6941 28.3951 43.7727 28.3165C43.8514 28.2378 43.905 28.1376 43.9267 28.0285C43.9484 27.9193 43.9373 27.8062 43.8947 27.7035C43.8521 27.6007 43.78 27.5128 43.6875 27.451C43.595 27.3892 43.4863 27.3562 43.375 27.3562C43.3011 27.3562 43.228 27.3707 43.1597 27.399C43.0914 27.4272 43.0294 27.4686 42.9772 27.5209C42.9249 27.5731 42.8835 27.6352 42.8552 27.7034C42.827 27.7717 42.8125 27.8448 42.8125 27.9187ZM43.375 41.0897C43.2635 41.0894 43.1544 41.1222 43.0615 41.1839C42.9686 41.2456 42.8961 41.3335 42.8532 41.4365C42.8102 41.5394 42.7988 41.6528 42.8203 41.7622C42.8417 41.8716 42.8952 41.9722 42.9739 42.0513C43.0525 42.1304 43.1529 42.1843 43.2622 42.2064C43.3715 42.2284 43.4849 42.2175 43.5881 42.1751C43.6912 42.1327 43.7795 42.0606 43.8417 41.968C43.9039 41.8754 43.9372 41.7665 43.9375 41.655C43.9378 41.5809 43.9235 41.5075 43.8953 41.4389C43.8672 41.3704 43.8258 41.3081 43.7736 41.2556C43.7213 41.2031 43.6592 41.1614 43.5908 41.1329C43.5224 41.1044 43.4491 41.0897 43.375 41.0897ZM43.375 35.2031C43.2633 35.2028 43.1541 35.2357 43.0612 35.2975C42.9682 35.3594 42.8957 35.4475 42.8529 35.5506C42.81 35.6537 42.7987 35.7671 42.8205 35.8767C42.8422 35.9862 42.8959 36.0868 42.9749 36.1657C43.0538 36.2447 43.1544 36.2984 43.2639 36.3201C43.3734 36.3419 43.4869 36.3306 43.59 36.2877C43.6931 36.2449 43.7812 36.1724 43.843 36.0794C43.9049 35.9865 43.9378 35.8772 43.9375 35.7656C43.9375 35.6917 43.923 35.6186 43.8948 35.5503C43.8665 35.482 43.8251 35.42 43.7728 35.3678C43.7206 35.3155 43.6586 35.2741 43.5903 35.2458C43.522 35.2176 43.4489 35.2031 43.375 35.2031ZM43.375 33.2428C43.2637 33.2428 43.155 33.2758 43.0625 33.3376C42.97 33.3994 42.8979 33.4872 42.8553 33.59C42.8127 33.6928 42.8016 33.8059 42.8233 33.915C42.845 34.0241 42.8986 34.1244 42.9773 34.203C43.0559 34.2817 43.1561 34.3353 43.2653 34.357C43.3744 34.3787 43.4875 34.3675 43.5903 34.325C43.693 34.2824 43.7809 34.2103 43.8427 34.1178C43.9045 34.0253 43.9375 33.9165 43.9375 33.8053C43.9378 33.7313 43.9234 33.6581 43.8952 33.5897C43.867 33.5214 43.8256 33.4592 43.7733 33.407C43.721 33.3547 43.6589 33.3132 43.5906 33.2851C43.5222 33.2569 43.4489 33.2425 43.375 33.2428ZM43.375 37.1662C43.2637 37.1662 43.155 37.1992 43.0625 37.261C42.97 37.3228 42.8979 37.4107 42.8553 37.5135C42.8127 37.6162 42.8016 37.7293 42.8233 37.8385C42.845 37.9476 42.8986 38.0478 42.9773 38.1265C43.0559 38.2051 43.1561 38.2587 43.2653 38.2804C43.3744 38.3021 43.4875 38.291 43.5903 38.2484C43.693 38.2058 43.7809 38.1337 43.8427 38.0412C43.9045 37.9487 43.9375 37.84 43.9375 37.7287C43.9375 37.5795 43.8782 37.4365 43.7727 37.331C43.6673 37.2255 43.5242 37.1662 43.375 37.1662ZM50.8281 45.7331C50.6954 45.767 50.5797 45.8481 50.5027 45.9614C50.4257 46.0746 50.3928 46.2121 50.4101 46.3479C50.4273 46.4837 50.4937 46.6085 50.5966 46.6989C50.6995 46.7892 50.8318 46.8388 50.9688 46.8384C51.0161 46.8382 51.0633 46.8325 51.1094 46.8215C51.1822 46.8043 51.2509 46.7728 51.3113 46.7287C51.3718 46.6846 51.4229 46.6289 51.4616 46.5649C51.5002 46.5008 51.5257 46.4297 51.5365 46.3556C51.5474 46.2816 51.5433 46.2061 51.5246 46.1337C51.5058 46.0612 51.4728 45.9933 51.4275 45.9337C51.3822 45.8742 51.3254 45.8243 51.2605 45.787C51.1957 45.7497 51.124 45.7257 51.0498 45.7164C50.9755 45.7072 50.9002 45.7129 50.8281 45.7331ZM49.0084 45.75C48.8972 45.75 48.7884 45.783 48.6959 45.8448C48.6034 45.9066 48.5313 45.9944 48.4888 46.0972C48.4462 46.2 48.435 46.3131 48.4567 46.4222C48.4784 46.5313 48.532 46.6315 48.6107 46.7102C48.6894 46.7889 48.7896 46.8425 48.8987 46.8642C49.0078 46.8859 49.1209 46.8747 49.2237 46.8322C49.3265 46.7896 49.4143 46.7175 49.4761 46.625C49.5379 46.5325 49.5709 46.4237 49.5709 46.3125C49.5709 46.1633 49.5117 46.0202 49.4062 45.9147C49.3007 45.8092 49.1576 45.75 49.0084 45.75ZM51.8125 44.1468C51.7012 44.1468 51.5925 44.1798 51.5 44.2416C51.4075 44.3035 51.3354 44.3913 51.2928 44.4941C51.2502 44.5969 51.2391 44.71 51.2608 44.8191C51.2825 44.9282 51.3361 45.0284 51.4148 45.1071C51.4934 45.1858 51.5936 45.2393 51.7028 45.261C51.8119 45.2827 51.925 45.2716 52.0278 45.229C52.1305 45.1865 52.2184 45.1144 52.2802 45.0219C52.342 44.9293 52.375 44.8206 52.375 44.7093C52.375 44.5602 52.3157 44.4171 52.2102 44.3116C52.1048 44.2061 51.9617 44.1468 51.8125 44.1468ZM47.0481 45.75C46.9369 45.75 46.8281 45.783 46.7356 45.8448C46.6431 45.9066 46.571 45.9944 46.5284 46.0972C46.4859 46.2 46.4747 46.3131 46.4964 46.4222C46.5181 46.5313 46.5717 46.6315 46.6504 46.7102C46.729 46.7889 46.8293 46.8425 46.9384 46.8642C47.0475 46.8859 47.1606 46.8747 47.2634 46.8322C47.3662 46.7896 47.454 46.7175 47.5158 46.625C47.5776 46.5325 47.6106 46.4237 47.6106 46.3125C47.6109 46.2385 47.5965 46.1653 47.5683 46.0969C47.5402 46.0285 47.4987 45.9664 47.4465 45.9141C47.3942 45.8619 47.3321 45.8204 47.2637 45.7923C47.1953 45.7641 47.1221 45.7497 47.0481 45.75Z" fill="#F17B33"/>
<path d="M51.8125 43.3083C52.1232 43.3083 52.375 43.0565 52.375 42.7458C52.375 42.4352 52.1232 42.1833 51.8125 42.1833C51.5018 42.1833 51.25 42.4352 51.25 42.7458C51.25 43.0565 51.5018 43.3083 51.8125 43.3083Z" fill="#F17B33"/>
<path d="M45.085 45.75C44.9738 45.75 44.865 45.783 44.7725 45.8448C44.68 45.9066 44.6079 45.9945 44.5653 46.0972C44.5228 46.2 44.5116 46.3131 44.5333 46.4222C44.555 46.5314 44.6086 46.6316 44.6873 46.7102C44.7659 46.7889 44.8662 46.8425 44.9753 46.8642C45.0844 46.8859 45.1975 46.8748 45.3003 46.8322C45.4031 46.7896 45.4909 46.7175 45.5527 46.625C45.6145 46.5325 45.6475 46.4238 45.6475 46.3125C45.6478 46.2386 45.6334 46.1653 45.6052 46.0969C45.5771 46.0286 45.5356 45.9665 45.4834 45.9142C45.4311 45.8619 45.369 45.8205 45.3006 45.7923C45.2322 45.7641 45.159 45.7497 45.085 45.75ZM51.8125 40.2206C51.7013 40.2206 51.5925 40.2536 51.5 40.3154C51.4075 40.3772 51.3354 40.4651 51.2928 40.5679C51.2503 40.6706 51.2391 40.7837 51.2608 40.8929C51.2825 41.002 51.3361 41.1022 51.4148 41.1809C51.4934 41.2595 51.5937 41.3131 51.7028 41.3348C51.8119 41.3565 51.925 41.3454 52.0278 41.3028C52.1306 41.2602 52.2184 41.1881 52.2802 41.0956C52.342 41.0031 52.375 40.8944 52.375 40.7831C52.3746 40.6341 52.3152 40.4913 52.2098 40.3859C52.1044 40.2805 51.9616 40.2211 51.8125 40.2206ZM43.4988 26.4591C43.6092 26.3832 43.6888 26.2702 43.7232 26.1407C43.7575 26.0112 43.7442 25.8736 43.6858 25.753C43.6274 25.6324 43.5277 25.5367 43.4047 25.4834C43.2818 25.43 43.1438 25.4224 43.0158 25.4621C42.8878 25.5017 42.7783 25.586 42.707 25.6995C42.6358 25.813 42.6076 25.9483 42.6276 26.0808C42.6476 26.2133 42.7144 26.3342 42.8159 26.4217C42.9174 26.5092 43.047 26.5574 43.181 26.5575C43.2944 26.5576 43.4052 26.5233 43.4988 26.4591ZM41.3866 24.9375C41.2753 24.9375 41.1666 24.9705 41.0741 25.0323C40.9816 25.0941 40.9095 25.182 40.8669 25.2847C40.8243 25.3875 40.8132 25.5006 40.8349 25.6097C40.8566 25.7189 40.9102 25.8191 40.9888 25.8977C41.0675 25.9764 41.1677 26.03 41.2768 26.0517C41.386 26.0734 41.4991 26.0623 41.6018 26.0197C41.7046 25.9771 41.7925 25.905 41.8543 25.8125C41.9161 25.72 41.9491 25.6113 41.9491 25.5C41.9491 25.3508 41.8898 25.2077 41.7843 25.1023C41.6788 24.9968 41.5358 24.9375 41.3866 24.9375ZM43.2513 45.0413C43.127 45.0864 43.0225 45.1738 42.9563 45.2883C42.8901 45.4027 42.8663 45.5369 42.8891 45.6671C42.912 45.7973 42.9799 45.9154 43.0811 46.0005C43.1823 46.0856 43.3103 46.1323 43.4425 46.1325C43.5077 46.1319 43.5723 46.1205 43.6338 46.0987C43.77 46.0451 43.8799 45.9404 43.9402 45.8069C44.0005 45.6735 44.0063 45.5218 43.9565 45.3841C43.9067 45.2464 43.8052 45.1335 43.6735 45.0695C43.5418 45.0055 43.3903 44.9954 43.2513 45.0413ZM43.375 44.1778C43.4863 44.1778 43.595 44.1448 43.6875 44.083C43.78 44.0212 43.8521 43.9334 43.8947 43.8306C43.9373 43.7278 43.9484 43.6147 43.9267 43.5056C43.905 43.3965 43.8514 43.2962 43.7728 43.2176C43.6941 43.1389 43.5939 43.0853 43.4848 43.0636C43.3756 43.0419 43.2625 43.0531 43.1598 43.0956C43.057 43.1382 42.9691 43.2103 42.9073 43.3028C42.8455 43.3953 42.8125 43.5041 42.8125 43.6153C42.813 43.7644 42.8724 43.9072 42.9778 44.0126C43.0832 44.118 43.226 44.1774 43.375 44.1778ZM28.0972 26.6537C28.012 26.8863 27.9951 27.1385 28.0483 27.3804C28.1016 27.6224 28.2229 27.8441 28.3979 28.0194L28.7624 28.3842C28.9378 28.5592 29.1595 28.6804 29.4015 28.7336C29.6434 28.7869 29.8955 28.7698 30.1281 28.6846C30.2322 28.9092 30.3982 29.0995 30.6068 29.2329C30.8153 29.3662 31.0576 29.4373 31.3052 29.4375H31.8207C32.0683 29.4373 32.3106 29.3662 32.5191 29.2329C32.7277 29.0995 32.8937 28.9092 32.9977 28.6846C33.2304 28.7698 33.4825 28.7869 33.7244 28.7336C33.9664 28.6804 34.1881 28.5592 34.3635 28.3842L34.7283 28.0194C34.9033 27.8441 35.0245 27.6223 35.0777 27.3804C35.1309 27.1384 35.1139 26.8863 35.0286 26.6537C35.2533 26.5497 35.4435 26.3836 35.5769 26.1751C35.7103 25.9665 35.7813 25.7242 35.7816 25.4767V24.9608C35.7813 24.7133 35.7103 24.471 35.5769 24.2624C35.4435 24.0539 35.2533 23.8878 35.0286 23.7838C35.1139 23.5512 35.1309 23.2991 35.0777 23.0571C35.0245 22.8152 34.9033 22.5934 34.7283 22.4181L34.3635 22.0533C34.1881 21.8783 33.9664 21.7571 33.7244 21.7039C33.4825 21.6506 33.2304 21.6677 32.9977 21.7529C32.8937 21.5283 32.7277 21.338 32.5191 21.2046C32.3106 21.0713 32.0683 21.0002 31.8207 21H31.3052C31.0576 21.0002 30.8152 21.0712 30.6066 21.2046C30.398 21.338 30.2319 21.5282 30.1279 21.7529C29.8953 21.6677 29.6431 21.6506 29.4012 21.7039C29.1592 21.7571 28.9375 21.8783 28.7621 22.0533L28.3976 22.4181C28.2226 22.5934 28.1013 22.8151 28.048 23.0571C27.9948 23.299 28.0117 23.5512 28.097 23.7838C27.8723 23.8878 27.6821 24.0539 27.5487 24.2624C27.4153 24.471 27.3443 24.7133 27.3441 24.9608V25.4767C27.3443 25.7242 27.4153 25.9665 27.5487 26.1751C27.6821 26.3836 27.8723 26.5497 28.097 26.6537H28.0972ZM28.4693 24.9608C28.4694 24.9153 28.4875 24.8717 28.5198 24.8395C28.552 24.8073 28.5957 24.7893 28.6412 24.7893H29.0214C29.0856 24.4058 29.2361 24.042 29.4616 23.7253L29.1927 23.4562C29.1605 23.4239 29.1424 23.3802 29.1424 23.3347C29.1424 23.2891 29.1605 23.2454 29.1927 23.2132L29.5572 22.8487C29.5901 22.8176 29.6336 22.8003 29.6789 22.8003C29.7241 22.8003 29.7676 22.8176 29.8005 22.8487L30.0694 23.1175C30.3858 22.8919 30.7495 22.7412 31.1328 22.6768V22.2966C31.1328 22.274 31.1373 22.2516 31.146 22.2308C31.1547 22.2099 31.1674 22.191 31.1834 22.175C31.1994 22.1591 31.2184 22.1465 31.2393 22.1379C31.2602 22.1293 31.2826 22.1249 31.3052 22.125H31.8207C31.8663 22.125 31.91 22.1431 31.9422 22.1753C31.9745 22.2076 31.9926 22.2513 31.9926 22.2968V22.6768C32.376 22.7412 32.7397 22.892 33.0562 23.1178L33.3251 22.8489C33.3581 22.8183 33.4016 22.8012 33.4466 22.8012C33.4917 22.8012 33.5351 22.8183 33.5681 22.8489L33.9326 23.2134C33.9648 23.2457 33.9829 23.2894 33.9829 23.3349C33.9829 23.3805 33.9648 23.4242 33.9326 23.4564L33.6637 23.7256C33.8895 24.042 34.0403 24.4057 34.1047 24.789H34.4847C34.5303 24.789 34.574 24.8071 34.6062 24.8393C34.6385 24.8716 34.6566 24.9153 34.6566 24.9608V25.4767C34.6565 25.5222 34.6383 25.5658 34.6061 25.598C34.5739 25.6302 34.5302 25.6482 34.4847 25.6482H34.1047C34.0403 26.0316 33.8895 26.3954 33.6637 26.7119L33.9326 26.9811C33.9648 27.0133 33.9829 27.057 33.9829 27.1026C33.9829 27.1481 33.9648 27.1918 33.9326 27.2241L33.5681 27.5886C33.5351 27.6193 33.4917 27.6364 33.4466 27.6364C33.4015 27.6364 33.3581 27.6193 33.3251 27.5886L33.0562 27.3197C32.7397 27.5455 32.376 27.6963 31.9926 27.7607V28.1404C31.9926 28.163 31.9882 28.1853 31.9796 28.2062C31.9709 28.2271 31.9583 28.2461 31.9423 28.2621C31.9264 28.2781 31.9074 28.2907 31.8865 28.2994C31.8657 28.308 31.8433 28.3125 31.8207 28.3125H31.3052C31.2826 28.3125 31.2602 28.3081 31.2393 28.2995C31.2185 28.2909 31.1995 28.2782 31.1835 28.2623C31.1675 28.2463 31.1548 28.2274 31.1462 28.2065C31.1375 28.1856 31.1331 28.1632 31.1331 28.1407V27.7607C30.7497 27.6962 30.3861 27.5454 30.0696 27.3197L29.8008 27.5886C29.7679 27.6196 29.7243 27.6368 29.6791 27.6368C29.6339 27.6368 29.5904 27.6196 29.5575 27.5886L29.193 27.2241C29.1608 27.1918 29.1427 27.1481 29.1427 27.1026C29.1427 27.057 29.1608 27.0133 29.193 26.9811L29.4619 26.7119C29.2362 26.3954 29.0855 26.0318 29.0211 25.6485H28.6409C28.5954 25.6484 28.5517 25.6303 28.5196 25.5981C28.4874 25.5658 28.4693 25.5222 28.4693 25.4767V24.9608Z" fill="#F17B33"/>
<path d="M31.5628 26.9063C31.8966 26.9063 32.2228 26.8073 32.5003 26.6219C32.7778 26.4364 32.9941 26.1729 33.1219 25.8645C33.2496 25.5562 33.283 25.2169 33.2179 24.8895C33.1528 24.5622 32.992 24.2615 32.756 24.0255C32.52 23.7895 32.2194 23.6288 31.892 23.5637C31.5647 23.4986 31.2254 23.532 30.917 23.6597C30.6087 23.7874 30.3451 24.0037 30.1597 24.2812C29.9743 24.5587 29.8753 24.885 29.8753 25.2188C29.8758 25.6661 30.0538 26.0951 30.3701 26.4114C30.6865 26.7278 31.1154 26.9057 31.5628 26.9063ZM31.5628 24.6563C31.6741 24.6563 31.7828 24.6892 31.8753 24.751C31.9678 24.8129 32.0399 24.9007 32.0825 25.0035C32.1251 25.1063 32.1362 25.2194 32.1145 25.3285C32.0928 25.4376 32.0392 25.5378 31.9606 25.6165C31.8819 25.6952 31.7817 25.7487 31.6725 25.7704C31.5634 25.7921 31.4503 25.781 31.3475 25.7384C31.2448 25.6959 31.1569 25.6238 31.0951 25.5313C31.0333 25.4388 31.0003 25.33 31.0003 25.2188C31.0005 25.0696 31.0598 24.9266 31.1652 24.8212C31.2707 24.7157 31.4137 24.6564 31.5628 24.6563Z" fill="#F17B33"/>
</g>
<path d="M93.616 34.234C92.92 34.234 92.251 34.126 91.609 33.91C90.973 33.688 90.415 33.373 89.935 32.965C89.455 32.551 89.11 32.056 88.9 31.48L90.961 30.724C91.045 30.964 91.216 31.183 91.474 31.381C91.732 31.579 92.047 31.738 92.419 31.858C92.791 31.978 93.19 32.038 93.616 32.038C94.054 32.038 94.462 31.972 94.84 31.84C95.224 31.702 95.533 31.513 95.767 31.273C96.001 31.027 96.118 30.742 96.118 30.418C96.118 30.088 95.995 29.818 95.749 29.608C95.503 29.392 95.188 29.221 94.804 29.095C94.42 28.969 94.024 28.873 93.616 28.807C92.722 28.669 91.921 28.456 91.213 28.168C90.505 27.88 89.944 27.481 89.53 26.971C89.122 26.461 88.918 25.801 88.918 24.991C88.918 24.229 89.137 23.563 89.575 22.993C90.013 22.423 90.589 21.979 91.303 21.661C92.017 21.343 92.788 21.184 93.616 21.184C94.306 21.184 94.972 21.292 95.614 21.508C96.256 21.724 96.817 22.039 97.297 22.453C97.783 22.867 98.131 23.365 98.341 23.947L96.271 24.694C96.187 24.454 96.016 24.235 95.758 24.037C95.5 23.839 95.185 23.683 94.813 23.569C94.441 23.449 94.042 23.389 93.616 23.389C93.19 23.383 92.785 23.452 92.401 23.596C92.023 23.734 91.714 23.923 91.474 24.163C91.234 24.403 91.114 24.679 91.114 24.991C91.114 25.393 91.225 25.696 91.447 25.9C91.675 26.104 91.978 26.254 92.356 26.35C92.734 26.44 93.154 26.524 93.616 26.602C94.456 26.734 95.233 26.956 95.947 27.268C96.661 27.58 97.234 27.997 97.666 28.519C98.098 29.035 98.314 29.668 98.314 30.418C98.314 31.18 98.098 31.849 97.666 32.425C97.234 32.995 96.661 33.439 95.947 33.757C95.233 34.075 94.456 34.234 93.616 34.234ZM108.402 34H105.873L103.821 30.463L102.561 31.966V34H100.365V20.5H102.561V28.555L105.54 25H108.411L105.324 28.681L108.402 34ZM109.717 25H111.913V34H109.717V25ZM110.833 23.839C110.509 23.839 110.236 23.734 110.014 23.524C109.792 23.308 109.681 23.038 109.681 22.714C109.681 22.396 109.792 22.129 110.014 21.913C110.236 21.697 110.506 21.589 110.824 21.589C111.142 21.589 111.409 21.697 111.625 21.913C111.847 22.129 111.958 22.396 111.958 22.714C111.958 23.038 111.85 23.308 111.634 23.524C111.418 23.734 111.151 23.839 110.833 23.839ZM114.111 34V20.5H116.307V34H114.111ZM118.471 34V20.5H120.667V34H118.471ZM131.942 24.748C132.818 24.748 133.616 24.961 134.336 25.387C135.056 25.813 135.629 26.386 136.055 27.106C136.481 27.82 136.694 28.612 136.694 29.482C136.694 30.136 136.571 30.751 136.325 31.327C136.079 31.903 135.737 32.41 135.299 32.848C134.867 33.28 134.363 33.619 133.787 33.865C133.217 34.111 132.602 34.234 131.942 34.234C131.378 34.234 130.877 34.108 130.439 33.856C130.007 33.598 129.644 33.265 129.35 32.857V34H127.154V20.5H129.35V26.125C129.644 25.717 130.007 25.387 130.439 25.135C130.877 24.877 131.378 24.748 131.942 24.748ZM131.915 32.11C132.383 32.11 132.806 31.993 133.184 31.759C133.568 31.519 133.874 31.201 134.102 30.805C134.33 30.409 134.444 29.968 134.444 29.482C134.444 29.002 134.33 28.564 134.102 28.168C133.874 27.766 133.568 27.448 133.184 27.214C132.8 26.98 132.377 26.863 131.915 26.863C131.459 26.863 131.051 26.983 130.691 27.223C130.331 27.457 130.049 27.775 129.845 28.177C129.641 28.573 129.539 29.008 129.539 29.482C129.539 29.968 129.641 30.412 129.845 30.814C130.049 31.21 130.331 31.525 130.691 31.759C131.051 31.993 131.459 32.11 131.915 32.11ZM137.552 30.67V25H139.748V30.094C139.748 30.448 139.835 30.772 140.009 31.066C140.183 31.354 140.414 31.585 140.702 31.759C140.996 31.927 141.317 32.011 141.665 32.011C142.025 32.011 142.349 31.927 142.637 31.759C142.925 31.585 143.156 31.354 143.33 31.066C143.504 30.772 143.591 30.448 143.591 30.094V25H145.787L145.796 34H143.6L143.591 33.181C143.279 33.505 142.91 33.763 142.484 33.955C142.058 34.141 141.602 34.234 141.116 34.234C140.462 34.234 139.865 34.075 139.325 33.757C138.785 33.433 138.353 33.004 138.029 32.47C137.711 31.93 137.552 31.33 137.552 30.67ZM147.598 25H149.794V34H147.598V25ZM148.714 23.839C148.39 23.839 148.117 23.734 147.895 23.524C147.673 23.308 147.562 23.038 147.562 22.714C147.562 22.396 147.673 22.129 147.895 21.913C148.117 21.697 148.387 21.589 148.705 21.589C149.023 21.589 149.29 21.697 149.506 21.913C149.728 22.129 149.839 22.396 149.839 22.714C149.839 23.038 149.731 23.308 149.515 23.524C149.299 23.734 149.032 23.839 148.714 23.839ZM151.992 34V20.5H154.188V34H151.992ZM163.015 20.5H165.211V34H163.015V32.875C162.727 33.277 162.364 33.604 161.926 33.856C161.488 34.108 160.981 34.234 160.405 34.234C159.751 34.234 159.139 34.111 158.569 33.865C157.999 33.619 157.495 33.28 157.057 32.848C156.625 32.41 156.286 31.906 156.04 31.336C155.794 30.766 155.671 30.154 155.671 29.5C155.671 28.846 155.794 28.234 156.04 27.664C156.286 27.094 156.625 26.593 157.057 26.161C157.495 25.723 157.999 25.381 158.569 25.135C159.139 24.889 159.751 24.766 160.405 24.766C160.981 24.766 161.488 24.892 161.926 25.144C162.364 25.39 162.727 25.717 163.015 26.125V20.5ZM160.432 32.119C160.9 32.119 161.314 32.002 161.674 31.768C162.034 31.534 162.316 31.219 162.52 30.823C162.724 30.421 162.826 29.98 162.826 29.5C162.826 29.014 162.724 28.573 162.52 28.177C162.316 27.775 162.031 27.457 161.665 27.223C161.305 26.989 160.894 26.872 160.432 26.872C159.97 26.872 159.547 26.992 159.163 27.232C158.785 27.466 158.482 27.781 158.254 28.177C158.032 28.573 157.921 29.014 157.921 29.5C157.921 29.986 158.035 30.427 158.263 30.823C158.491 31.219 158.794 31.534 159.172 31.768C159.556 32.002 159.976 32.119 160.432 32.119ZM167.373 25H169.569V34H167.373V25ZM168.489 23.839C168.165 23.839 167.892 23.734 167.67 23.524C167.448 23.308 167.337 23.038 167.337 22.714C167.337 22.396 167.448 22.129 167.67 21.913C167.892 21.697 168.162 21.589 168.48 21.589C168.798 21.589 169.065 21.697 169.281 21.913C169.503 22.129 169.614 22.396 169.614 22.714C169.614 23.038 169.506 23.308 169.29 23.524C169.074 23.734 168.807 23.839 168.489 23.839ZM179.906 28.312V34H177.71V28.888C177.71 28.534 177.623 28.213 177.449 27.925C177.275 27.631 177.041 27.4 176.747 27.232C176.459 27.058 176.138 26.971 175.784 26.971C175.43 26.971 175.106 27.058 174.812 27.232C174.524 27.4 174.293 27.631 174.119 27.925C173.951 28.213 173.867 28.534 173.867 28.888V34H171.671L171.662 25H173.858L173.867 25.801C174.173 25.477 174.539 25.222 174.965 25.036C175.391 24.844 175.85 24.748 176.342 24.748C176.996 24.748 177.593 24.91 178.133 25.234C178.673 25.552 179.102 25.981 179.42 26.521C179.744 27.055 179.906 27.652 179.906 28.312ZM188.201 25H190.397V34.171C190.397 34.819 190.265 35.407 190.001 35.935C189.737 36.469 189.377 36.925 188.921 37.303C188.465 37.687 187.943 37.981 187.355 38.185C186.767 38.395 186.149 38.5 185.501 38.5C184.871 38.5 184.265 38.371 183.683 38.113C183.101 37.855 182.585 37.501 182.135 37.051C181.691 36.607 181.352 36.1 181.118 35.53L183.125 34.621C183.245 34.951 183.425 35.239 183.665 35.485C183.911 35.737 184.193 35.932 184.511 36.07C184.829 36.214 185.159 36.286 185.501 36.286C185.849 36.286 186.182 36.238 186.5 36.142C186.824 36.046 187.115 35.905 187.373 35.719C187.631 35.539 187.832 35.317 187.976 35.053C188.126 34.795 188.201 34.501 188.201 34.171V32.902C187.919 33.298 187.565 33.619 187.139 33.865C186.713 34.111 186.221 34.234 185.663 34.234C185.015 34.234 184.409 34.111 183.845 33.865C183.281 33.619 182.783 33.28 182.351 32.848C181.925 32.41 181.589 31.906 181.343 31.336C181.103 30.766 180.983 30.154 180.983 29.5C180.983 28.846 181.103 28.234 181.343 27.664C181.589 27.094 181.925 26.593 182.351 26.161C182.783 25.723 183.281 25.381 183.845 25.135C184.409 24.889 185.015 24.766 185.663 24.766C186.221 24.766 186.713 24.889 187.139 25.135C187.565 25.375 187.919 25.693 188.201 26.089V25ZM185.69 32.119C186.152 32.119 186.56 32.002 186.914 31.768C187.274 31.528 187.556 31.21 187.76 30.814C187.964 30.412 188.066 29.974 188.066 29.5C188.066 29.02 187.961 28.582 187.751 28.186C187.547 27.79 187.265 27.472 186.905 27.232C186.551 26.992 186.146 26.872 185.69 26.872C185.24 26.872 184.829 26.992 184.457 27.232C184.085 27.466 183.788 27.781 183.566 28.177C183.344 28.573 183.233 29.014 183.233 29.5C183.233 29.986 183.344 30.427 183.566 30.823C183.788 31.219 184.085 31.534 184.457 31.768C184.829 32.002 185.24 32.119 185.69 32.119ZM91.951 58L88.729 45.4H90.997L93.193 54.013L95.389 45.4H97.396L99.592 54.013L101.779 45.4H104.047L100.843 58H98.35L96.388 50.368L94.453 58H91.951ZM108.28 58.234C107.452 58.234 106.696 58.021 106.012 57.595C105.334 57.169 104.791 56.599 104.383 55.885C103.981 55.165 103.78 54.37 103.78 53.5C103.78 52.84 103.897 52.225 104.131 51.655C104.365 51.079 104.686 50.575 105.094 50.143C105.508 49.705 105.988 49.363 106.534 49.117C107.08 48.871 107.662 48.748 108.28 48.748C109.108 48.748 109.861 48.961 110.539 49.387C111.223 49.813 111.766 50.386 112.168 51.106C112.576 51.826 112.78 52.624 112.78 53.5C112.78 54.154 112.663 54.766 112.429 55.336C112.195 55.906 111.871 56.41 111.457 56.848C111.049 57.28 110.572 57.619 110.026 57.865C109.486 58.111 108.904 58.234 108.28 58.234ZM108.28 56.038C108.718 56.038 109.111 55.921 109.459 55.687C109.807 55.453 110.08 55.144 110.278 54.76C110.482 54.376 110.584 53.956 110.584 53.5C110.584 53.032 110.479 52.606 110.269 52.222C110.065 51.832 109.786 51.523 109.432 51.295C109.084 51.061 108.7 50.944 108.28 50.944C107.848 50.944 107.458 51.061 107.11 51.295C106.762 51.529 106.486 51.841 106.282 52.231C106.078 52.621 105.976 53.044 105.976 53.5C105.976 53.974 106.081 54.403 106.291 54.787C106.501 55.171 106.78 55.477 107.128 55.705C107.482 55.927 107.866 56.038 108.28 56.038ZM114.191 58L114.182 49H116.378L116.387 49.801C116.693 49.477 117.059 49.222 117.485 49.036C117.911 48.844 118.37 48.748 118.862 48.748C119.192 48.748 119.522 48.796 119.852 48.892L118.988 51.106C118.76 51.016 118.532 50.971 118.304 50.971C117.95 50.971 117.626 51.058 117.332 51.232C117.044 51.4 116.813 51.631 116.639 51.925C116.471 52.213 116.387 52.534 116.387 52.888V58H114.191ZM128.898 58H126.369L124.317 54.463L123.057 55.966V58H120.861V44.5H123.057V52.555L126.036 49H128.907L125.82 52.681L128.898 58ZM132.762 58.162C132.294 58.132 131.841 58.039 131.403 57.883C130.971 57.721 130.587 57.502 130.251 57.226C129.915 56.95 129.657 56.62 129.477 56.236L131.331 55.444C131.403 55.564 131.52 55.693 131.682 55.831C131.844 55.963 132.036 56.074 132.258 56.164C132.486 56.254 132.735 56.299 133.005 56.299C133.233 56.299 133.449 56.269 133.653 56.209C133.863 56.143 134.031 56.044 134.157 55.912C134.289 55.78 134.355 55.609 134.355 55.399C134.355 55.177 134.277 55.006 134.121 54.886C133.971 54.76 133.779 54.667 133.545 54.607C133.317 54.541 133.095 54.481 132.879 54.427C132.309 54.313 131.778 54.136 131.286 53.896C130.8 53.656 130.407 53.347 130.107 52.969C129.813 52.585 129.666 52.123 129.666 51.583C129.666 50.989 129.822 50.476 130.134 50.044C130.452 49.612 130.863 49.279 131.367 49.045C131.877 48.811 132.426 48.694 133.014 48.694C133.728 48.694 134.382 48.844 134.976 49.144C135.576 49.438 136.05 49.855 136.398 50.395L134.661 51.421C134.577 51.277 134.46 51.145 134.31 51.025C134.16 50.899 133.989 50.797 133.797 50.719C133.605 50.635 133.404 50.587 133.194 50.575C132.924 50.563 132.678 50.587 132.456 50.647C132.234 50.707 132.054 50.809 131.916 50.953C131.784 51.097 131.718 51.289 131.718 51.529C131.718 51.757 131.808 51.928 131.988 52.042C132.168 52.15 132.384 52.234 132.636 52.294C132.894 52.354 133.14 52.42 133.374 52.492C133.902 52.666 134.397 52.879 134.859 53.131C135.327 53.383 135.702 53.692 135.984 54.058C136.266 54.424 136.401 54.862 136.389 55.372C136.389 55.954 136.215 56.464 135.867 56.902C135.519 57.334 135.069 57.664 134.517 57.892C133.971 58.12 133.386 58.21 132.762 58.162ZM146.174 52.312V58H143.978V52.888C143.978 52.534 143.891 52.213 143.717 51.925C143.543 51.631 143.309 51.4 143.015 51.232C142.727 51.058 142.406 50.971 142.052 50.971C141.698 50.971 141.374 51.058 141.08 51.232C140.792 51.4 140.561 51.631 140.387 51.925C140.219 52.213 140.135 52.534 140.135 52.888V58H137.939L137.93 44.5H140.126L140.135 49.801C140.441 49.477 140.807 49.222 141.233 49.036C141.659 48.844 142.118 48.748 142.61 48.748C143.264 48.748 143.861 48.91 144.401 49.234C144.941 49.552 145.37 49.981 145.688 50.521C146.012 51.055 146.174 51.652 146.174 52.312ZM151.751 58.234C150.923 58.234 150.167 58.021 149.483 57.595C148.805 57.169 148.262 56.599 147.854 55.885C147.452 55.165 147.251 54.37 147.251 53.5C147.251 52.84 147.368 52.225 147.602 51.655C147.836 51.079 148.157 50.575 148.565 50.143C148.979 49.705 149.459 49.363 150.005 49.117C150.551 48.871 151.133 48.748 151.751 48.748C152.579 48.748 153.332 48.961 154.01 49.387C154.694 49.813 155.237 50.386 155.639 51.106C156.047 51.826 156.251 52.624 156.251 53.5C156.251 54.154 156.134 54.766 155.9 55.336C155.666 55.906 155.342 56.41 154.928 56.848C154.52 57.28 154.043 57.619 153.497 57.865C152.957 58.111 152.375 58.234 151.751 58.234ZM151.751 56.038C152.189 56.038 152.582 55.921 152.93 55.687C153.278 55.453 153.551 55.144 153.749 54.76C153.953 54.376 154.055 53.956 154.055 53.5C154.055 53.032 153.95 52.606 153.74 52.222C153.536 51.832 153.257 51.523 152.903 51.295C152.555 51.061 152.171 50.944 151.751 50.944C151.319 50.944 150.929 51.061 150.581 51.295C150.233 51.529 149.957 51.841 149.753 52.231C149.549 52.621 149.447 53.044 149.447 53.5C149.447 53.974 149.552 54.403 149.762 54.787C149.972 55.171 150.251 55.477 150.599 55.705C150.953 55.927 151.337 56.038 151.751 56.038ZM159.848 62.5H157.652V49H159.848V50.143C160.142 49.735 160.502 49.405 160.928 49.153C161.36 48.895 161.864 48.766 162.44 48.766C163.1 48.766 163.715 48.889 164.285 49.135C164.855 49.381 165.356 49.723 165.788 50.161C166.226 50.593 166.565 51.094 166.805 51.664C167.051 52.234 167.174 52.846 167.174 53.5C167.174 54.154 167.051 54.769 166.805 55.345C166.565 55.921 166.226 56.428 165.788 56.866C165.356 57.298 164.855 57.637 164.285 57.883C163.715 58.129 163.1 58.252 162.44 58.252C161.864 58.252 161.36 58.126 160.928 57.874C160.502 57.616 160.142 57.283 159.848 56.875V62.5ZM162.413 50.881C161.957 50.881 161.549 51.001 161.189 51.241C160.829 51.475 160.547 51.79 160.343 52.186C160.139 52.582 160.037 53.02 160.037 53.5C160.037 53.98 160.139 54.421 160.343 54.823C160.547 55.219 160.829 55.537 161.189 55.777C161.549 56.011 161.957 56.128 162.413 56.128C162.875 56.128 163.298 56.011 163.682 55.777C164.066 55.543 164.372 55.228 164.6 54.832C164.828 54.43 164.942 53.986 164.942 53.5C164.942 53.02 164.828 52.582 164.6 52.186C164.372 51.79 164.066 51.475 163.682 51.241C163.304 51.001 162.881 50.881 162.413 50.881ZM171.311 58.162C170.843 58.132 170.39 58.039 169.952 57.883C169.52 57.721 169.136 57.502 168.8 57.226C168.464 56.95 168.206 56.62 168.026 56.236L169.88 55.444C169.952 55.564 170.069 55.693 170.231 55.831C170.393 55.963 170.585 56.074 170.807 56.164C171.035 56.254 171.284 56.299 171.554 56.299C171.782 56.299 171.998 56.269 172.202 56.209C172.412 56.143 172.58 56.044 172.706 55.912C172.838 55.78 172.904 55.609 172.904 55.399C172.904 55.177 172.826 55.006 172.67 54.886C172.52 54.76 172.328 54.667 172.094 54.607C171.866 54.541 171.644 54.481 171.428 54.427C170.858 54.313 170.327 54.136 169.835 53.896C169.349 53.656 168.956 53.347 168.656 52.969C168.362 52.585 168.215 52.123 168.215 51.583C168.215 50.989 168.371 50.476 168.683 50.044C169.001 49.612 169.412 49.279 169.916 49.045C170.426 48.811 170.975 48.694 171.563 48.694C172.277 48.694 172.931 48.844 173.525 49.144C174.125 49.438 174.599 49.855 174.947 50.395L173.21 51.421C173.126 51.277 173.009 51.145 172.859 51.025C172.709 50.899 172.538 50.797 172.346 50.719C172.154 50.635 171.953 50.587 171.743 50.575C171.473 50.563 171.227 50.587 171.005 50.647C170.783 50.707 170.603 50.809 170.465 50.953C170.333 51.097 170.267 51.289 170.267 51.529C170.267 51.757 170.357 51.928 170.537 52.042C170.717 52.15 170.933 52.234 171.185 52.294C171.443 52.354 171.689 52.42 171.923 52.492C172.451 52.666 172.946 52.879 173.408 53.131C173.876 53.383 174.251 53.692 174.533 54.058C174.815 54.424 174.95 54.862 174.938 55.372C174.938 55.954 174.764 56.464 174.416 56.902C174.068 57.334 173.618 57.664 173.066 57.892C172.52 58.12 171.935 58.21 171.311 58.162Z" fill="#FCF9F3"/>
<defs>
<clipPath id="clip0_60_394">
<rect width="36" height="36" fill="white" transform="translate(22 21)"/>
</clipPath>
</defs>
</svg>
