<svg width="36" height="37" viewBox="0 0 36 37" fill="none" xmlns="http://www.w3.org/2000/svg">
<g clip-path="url(#clip0_71_1009)">
<path d="M30 6.45312H6C4.35 6.45312 3.015 7.80312 3.015 9.45312L3 27.4531C3 29.1031 4.35 30.4531 6 30.4531H30C31.65 30.4531 33 29.1031 33 27.4531V9.45312C33 7.80312 31.65 6.45312 30 6.45312ZM29.4 12.8281L18.795 19.4581C18.315 19.7581 17.685 19.7581 17.205 19.4581L6.6 12.8281C6.225 12.5881 6 12.1831 6 11.7481C6 10.7431 7.095 10.1431 7.95 10.6681L18 16.9531L28.05 10.6681C28.905 10.1431 30 10.7431 30 11.7481C30 12.1831 29.775 12.5881 29.4 12.8281Z" fill="#FEEFDC"/>
</g>
<defs>
<clipPath id="clip0_71_1009">
<rect width="36" height="36" fill="white" transform="translate(0 0.453125)"/>
</clipPath>
</defs>
</svg>
