<svg width="36" height="37" viewBox="0 0 36 37" fill="none" xmlns="http://www.w3.org/2000/svg">
<path d="M18 14.7331C17.2643 14.7331 16.545 14.9513 15.9333 15.3601C15.3215 15.7688 14.8447 16.3498 14.5632 17.0295C14.2816 17.7093 14.2079 18.4573 14.3515 19.1789C14.495 19.9005 14.8493 20.5633 15.3696 21.0836C15.8898 21.6038 16.5527 21.9581 17.2743 22.1016C17.9959 22.2452 18.7438 22.1715 19.4236 21.89C20.1033 21.6084 20.6843 21.1316 21.0931 20.5198C21.5018 19.9081 21.72 19.1889 21.72 18.4531C21.72 17.9646 21.6238 17.4809 21.4368 17.0295C21.2499 16.5782 20.9759 16.1681 20.6304 15.8227C20.285 15.4773 19.8749 15.2032 19.4236 15.0163C18.9723 14.8293 18.4885 14.7331 18 14.7331ZM32.895 11.0581C32.8871 9.89976 32.6738 8.75198 32.265 7.66813C31.9639 6.87501 31.4981 6.15477 30.8982 5.5549C30.2984 4.95504 29.5781 4.4892 28.785 4.18813C27.7011 3.77932 26.5534 3.56602 25.395 3.55812C23.46 3.45312 22.89 3.45312 18 3.45312C13.11 3.45312 12.54 3.45312 10.605 3.55812C9.44664 3.56602 8.29886 3.77932 7.215 4.18813C6.42189 4.4892 5.70164 4.95504 5.10178 5.5549C4.50192 6.15477 4.03608 6.87501 3.735 7.66813C3.3262 8.75198 3.11289 9.89976 3.105 11.0581C3 12.9931 3 13.5631 3 18.4531C3 23.3431 3 23.9131 3.105 25.8481C3.12115 27.0106 3.33416 28.1619 3.735 29.2531C4.03474 30.0426 4.50019 30.7587 5.1 31.3531C5.69729 31.9566 6.41908 32.4224 7.215 32.7181C8.29886 33.1269 9.44664 33.3402 10.605 33.3481C12.54 33.4531 13.11 33.4531 18 33.4531C22.89 33.4531 23.46 33.4531 25.395 33.3481C26.5534 33.3402 27.7011 33.1269 28.785 32.7181C29.5809 32.4224 30.3027 31.9566 30.9 31.3531C31.4998 30.7587 31.9653 30.0426 32.265 29.2531C32.6734 28.164 32.8867 27.0113 32.895 25.8481C33 23.9131 33 23.3431 33 18.4531C33 13.5631 33 12.9931 32.895 11.0581ZM29.085 23.0581C29.0369 23.9838 28.8393 24.8956 28.5 25.7581C28.2088 26.4777 27.7759 27.1313 27.227 27.6802C26.6782 28.229 26.0245 28.6619 25.305 28.9531C24.4343 29.2735 23.5174 29.4508 22.59 29.4781C21.405 29.4781 21.09 29.4781 18 29.4781C14.91 29.4781 14.595 29.4781 13.41 29.4781C12.4826 29.4508 11.5657 29.2735 10.695 28.9531C9.95115 28.6767 9.27942 28.2357 8.73 27.6631C8.1865 27.125 7.76677 26.4749 7.5 25.7581C7.17834 24.8883 7.00591 23.9704 6.99 23.0431C6.99 21.8581 6.99 21.5431 6.99 18.4531C6.99 15.3631 6.99 15.0481 6.99 13.8631C7.00591 12.9359 7.17834 12.018 7.5 11.1481C7.77642 10.4043 8.21741 9.73254 8.79 9.18313C9.3305 8.64256 9.9799 8.22327 10.695 7.95312C11.5657 7.63273 12.4826 7.45544 13.41 7.42813C14.595 7.42813 14.91 7.42813 18 7.42813C21.09 7.42813 21.405 7.42813 22.59 7.42813C23.5174 7.45544 24.4343 7.63273 25.305 7.95312C26.0488 8.22955 26.7206 8.67054 27.27 9.24312C27.8135 9.78125 28.2332 10.4313 28.5 11.1481C28.8204 12.0189 28.9977 12.9357 29.025 13.8631C29.025 15.0481 29.025 15.3631 29.025 18.4531C29.025 21.5431 29.13 21.8581 29.085 23.0431V23.0581ZM26.685 11.8981C26.5064 11.4136 26.2248 10.9736 25.8597 10.6084C25.4945 10.2433 25.0545 9.96172 24.57 9.78312C23.9047 9.55252 23.204 9.44081 22.5 9.45312C21.33 9.45312 21 9.45312 18 9.45312C15 9.45312 14.67 9.45312 13.5 9.45312C12.7924 9.46004 12.0916 9.59208 11.43 9.84313C10.9529 10.0136 10.5175 10.2837 10.1529 10.6354C9.78821 10.9872 9.50259 11.4125 9.315 11.8831C9.09717 12.5512 8.99074 13.2505 9 13.9531C9 15.1231 9 15.4531 9 18.4531C9 21.4531 9 21.7831 9 22.9531C9.01487 23.6599 9.14665 24.3594 9.39 25.0231C9.5686 25.5076 9.85018 25.9477 10.2153 26.3128C10.5805 26.6779 11.0205 26.9595 11.505 27.1381C12.145 27.3735 12.8185 27.5052 13.5 27.5281C14.67 27.5281 15 27.5281 18 27.5281C21 27.5281 21.33 27.5281 22.5 27.5281C23.2076 27.5212 23.9084 27.3892 24.57 27.1381C25.0545 26.9595 25.4945 26.6779 25.8597 26.3128C26.2248 25.9477 26.5064 25.5076 26.685 25.0231C26.9361 24.3615 27.0681 23.6607 27.075 22.9531C27.075 21.7831 27.075 21.4531 27.075 18.4531C27.075 15.4531 27.075 15.1231 27.075 13.9531C27.0754 13.2448 26.9432 12.5427 26.685 11.8831V11.8981ZM18 24.1831C17.2482 24.1831 16.5038 24.0348 15.8095 23.7467C15.1151 23.4585 14.4845 23.0362 13.9536 22.5039C13.4227 21.9717 13.002 21.3399 12.7157 20.6448C12.4294 19.9497 12.283 19.2049 12.285 18.4531C12.285 17.3192 12.6214 16.2108 13.2517 15.2682C13.882 14.3255 14.7778 13.5911 15.8257 13.1579C16.8736 12.7246 18.0265 12.612 19.1384 12.8343C20.2503 13.0567 21.2713 13.6039 22.072 14.4067C22.8728 15.2096 23.4173 16.232 23.6367 17.3445C23.8561 18.457 23.7405 19.6096 23.3045 20.6563C22.8685 21.7031 22.1318 22.5969 21.1875 23.2247C20.2432 23.8526 19.1339 24.1861 18 24.1831ZM24 13.8481C23.6684 13.813 23.3615 13.6565 23.1385 13.4086C22.9155 13.1607 22.7921 12.8391 22.7921 12.5056C22.7921 12.1722 22.9155 11.8505 23.1385 11.6027C23.3615 11.3548 23.6684 11.1982 24 11.1631C24.3316 11.1982 24.6385 11.3548 24.8615 11.6027C25.0845 11.8505 25.2079 12.1722 25.2079 12.5056C25.2079 12.8391 25.0845 13.1607 24.8615 13.4086C24.6385 13.6565 24.3316 13.813 24 13.8481Z" fill="#FEEFDC"/>
</svg>
