<svg xmlns="http://www.w3.org/2000/svg" width="240" height="232" viewBox="0 0 240 232" version="1.1"><path d="M 109.242 13.494 C 104.437 15.582, 99.303 19.773, 97.016 23.475 C 93.868 28.568, 94.258 29, 102 29 C 106 29, 109 29.429, 109 30 C 109 30.582, 105.706 31, 101.117 31 C 92.507 31, 92.048 31.363, 92.014 38.210 C 92 40.912, 92.021 40.920, 100.170 41.210 C 105.599 41.403, 108.478 41.919, 108.753 42.750 C 109.062 43.685, 107.004 44, 100.583 44 L 92 44 92 48.500 L 92 53 100.500 53 C 111.446 53, 111.652 54.826, 100.750 55.210 L 92.500 55.500 92.500 62 L 92.500 68.500 121 68.500 L 149.500 68.500 149.500 50 C 149.500 31.856, 149.448 31.402, 146.814 26.410 C 143.833 20.761, 138.371 15.471, 133.355 13.375 C 128.982 11.548, 113.545 11.624, 109.242 13.494 M 43.453 48.331 C 43.131 49.613, 41.602 58.276, 40.054 67.581 C 38.506 76.886, 36.987 83.825, 36.679 83 C 36.370 82.175, 35.610 78.912, 34.988 75.750 L 33.858 70 27.429 70 C 21.727 70, 21 70.220, 21 71.945 C 21 73.554, 21.815 73.943, 25.711 74.195 L 30.422 74.500 32.525 85.044 C 34.805 96.478, 35.392 98, 37.520 98 C 39.280 98, 40.206 94.302, 43.100 75.732 C 44.365 67.610, 45.699 61.535, 46.064 62.232 C 46.429 62.930, 47.768 69.259, 49.039 76.298 C 50.310 83.337, 51.946 89.862, 52.675 90.798 C 53.920 92.397, 54.084 92.392, 55.377 90.726 C 56.135 89.751, 57.555 85.139, 58.534 80.476 C 59.512 75.814, 60.643 72, 61.048 72 C 61.452 72, 62.092 73.237, 62.470 74.750 C 63.744 79.856, 65.678 81, 73.032 81 L 79.753 81 80.189 92.750 C 80.747 107.806, 83.378 114.357, 92.116 122.447 C 97.714 127.629, 106.370 132, 111.038 132 C 112.903 132, 113 132.765, 113 147.500 L 113 163 102 163 C 92.889 163, 91 163.258, 91 164.500 C 91 165.801, 95.111 166, 122 166 C 148.889 166, 153 165.801, 153 164.500 C 153 163.250, 151 163, 141 163 L 129 163 129 147.500 C 129 132.765, 129.097 132, 130.962 132 C 135.630 132, 144.286 127.629, 149.884 122.447 C 158.622 114.357, 161.253 107.806, 161.811 92.750 L 162.247 81 169.052 81 C 176.605 81, 178.409 79.965, 179.498 75.010 C 179.861 73.355, 180.503 72, 180.923 72 C 181.344 72, 182.488 75.814, 183.466 80.476 C 184.445 85.139, 185.865 89.751, 186.623 90.726 C 187.916 92.392, 188.080 92.397, 189.325 90.798 C 190.054 89.862, 191.690 83.337, 192.961 76.298 C 194.232 69.259, 195.571 62.930, 195.936 62.232 C 196.301 61.535, 197.635 67.610, 198.900 75.732 C 201.794 94.302, 202.720 98, 204.480 98 C 206.608 98, 207.195 96.478, 209.475 85.044 L 211.578 74.500 216.289 74.195 C 220.185 73.943, 221 73.554, 221 71.945 C 221 70.220, 220.273 70, 214.571 70 L 208.142 70 207.012 75.750 C 206.390 78.912, 205.630 82.175, 205.321 83 C 205.013 83.825, 203.494 76.886, 201.946 67.581 C 198.474 46.709, 198.297 46, 196.540 46 C 194.424 46, 194.192 46.699, 191.501 61.171 C 187.779 81.190, 188.018 80.813, 185.590 70.500 C 183.801 62.899, 183.163 61.500, 181.486 61.500 C 179.917 61.500, 178.981 63.014, 177.027 68.713 L 174.554 75.926 166.527 76.213 L 158.500 76.500 157.873 89.500 C 157.228 102.867, 156.287 106.943, 152.446 113 C 146.229 122.804, 135.337 128, 121 128 C 109.157 128, 99.029 124.162, 92.932 117.363 C 86.410 110.091, 84.888 105.275, 84.127 89.500 L 83.500 76.500 75.473 76.213 L 67.446 75.926 64.973 68.713 C 63.019 63.014, 62.083 61.500, 60.514 61.500 C 58.837 61.500, 58.199 62.899, 56.410 70.500 C 53.982 80.813, 54.221 81.190, 50.499 61.171 C 49.136 53.840, 47.764 47.428, 47.451 46.921 C 46.375 45.179, 44.037 46.003, 43.453 48.331 M 92.184 73.750 L 92.500 76.500 121 76.500 L 149.500 76.500 149.816 73.750 L 150.133 71 121 71 L 91.867 71 92.184 73.750 M 92.182 90.750 C 92.611 103.597, 93.635 106.746, 99.362 112.838 C 105.240 119.089, 109.223 120.500, 121 120.500 C 132.564 120.500, 135.604 119.499, 141.838 113.638 C 147.974 107.869, 149.373 103.854, 149.815 90.750 L 150.211 79 121 79 L 91.789 79 92.182 90.750 M 144 88.951 C 144 98.338, 142.120 104.119, 137.587 108.664 C 134.655 111.604, 132.270 113.023, 129.468 113.492 C 123.364 114.513, 122.508 114.908, 123.733 116.133 C 124.489 116.889, 126.429 116.726, 130.392 115.574 C 136.714 113.737, 142.115 109.055, 144.501 103.344 C 146.208 99.258, 146.602 84, 145 84 C 144.450 84, 144 86.228, 144 88.951" stroke="none" fill="#e27e40" fill-rule="evenodd"/><path d="M 22.228 194.190 C 17.008 196.799, 18.170 203.843, 24.425 207.509 C 29.842 210.683, 31.219 212.266, 30.407 214.382 C 28.856 218.423, 21.547 217.027, 20.403 212.471 C 19.465 208.732, 18 209.512, 18.001 213.750 C 18.001 217.084, 18.307 217.541, 20.751 217.871 C 30.733 219.219, 35 217.317, 35 211.519 C 35 208.037, 32.621 205.307, 27.199 202.565 C 23.349 200.618, 22.277 198.576, 24.011 196.487 C 25.999 194.091, 28.948 194.745, 30.797 197.994 C 33.029 201.917, 34 201.786, 34 197.562 C 34 194.967, 33.571 194.116, 32.250 194.092 C 31.288 194.075, 29.150 193.834, 27.500 193.557 C 25.850 193.280, 23.478 193.565, 22.228 194.190 M 38 194.281 C 38 194.711, 38.675 195.322, 39.500 195.638 C 41.874 196.549, 41.656 214.781, 39.250 216.608 C 37.737 217.757, 38.375 217.941, 43.973 217.968 C 50.112 217.998, 50.331 217.920, 48.223 216.443 C 46.565 215.282, 46 213.885, 46 210.943 L 46 207 51.500 207 L 57 207 57 211.450 C 57 214.634, 56.502 216.191, 55.250 216.920 C 53.979 217.660, 56.337 217.947, 63.872 217.970 C 72.941 217.996, 74.090 217.813, 73.011 216.513 C 72.303 215.660, 72.046 213.954, 72.407 212.513 C 72.946 210.369, 73.608 210, 76.921 210 C 80.332 210, 80.931 210.363, 81.844 212.983 C 82.703 215.446, 82.589 216.137, 81.192 216.952 C 80.002 217.646, 82.618 217.939, 90 217.938 C 98.942 217.937, 100.240 217.739, 98.750 216.608 C 97.349 215.544, 97 213.739, 97 207.547 L 97 199.814 104.611 209.157 C 108.797 214.296, 112.847 218.645, 113.611 218.823 C 114.735 219.085, 115 216.934, 115 207.542 C 115 197.429, 115.225 195.845, 116.750 195.222 C 118.010 194.707, 117.381 194.353, 114.500 193.958 C 109.356 193.254, 108.455 193.738, 111.030 195.823 C 112.825 197.277, 113.062 198.417, 112.801 204.334 L 112.500 211.167 105.760 202.583 C 99.151 194.166, 98.939 194.001, 94.760 194.052 C 90.596 194.104, 90.551 194.140, 92.750 195.674 C 94.793 197.099, 95 198.051, 95 206 C 95 212.389, 94.612 215.077, 93.564 215.947 C 90.771 218.265, 88.461 215.384, 84.013 204.033 C 81.623 197.934, 79.180 193.106, 78.584 193.303 C 77.988 193.501, 75.475 198.503, 73 204.420 C 68.752 214.574, 66.269 217.903, 63.992 216.495 C 63.444 216.156, 63 211.454, 63 205.991 C 63 197.625, 63.270 195.942, 64.750 195.080 C 66.776 193.900, 66.646 193.867, 60 193.867 C 53.354 193.867, 53.224 193.900, 55.250 195.080 C 56.502 195.809, 57 197.366, 57 200.550 L 57 205 51.500 205 L 46 205 46 200.567 C 46 196.959, 46.386 196.012, 48.075 195.476 C 49.217 195.114, 49.890 194.557, 49.571 194.238 C 48.685 193.352, 38 193.392, 38 194.281 M 129.138 194.750 C 128.625 195.713, 126.577 200.550, 124.585 205.500 C 122.594 210.450, 119.960 215.277, 118.733 216.228 C 116.527 217.934, 116.560 217.956, 121.372 217.978 C 125.572 217.997, 126.075 217.795, 125.011 216.513 C 124.303 215.660, 124.046 213.954, 124.407 212.513 C 124.946 210.369, 125.608 210, 128.921 210 C 132.332 210, 132.931 210.363, 133.844 212.983 C 134.703 215.446, 134.589 216.137, 133.192 216.952 C 132.013 217.640, 135.280 217.948, 143.973 217.970 C 155.673 217.998, 156.304 217.901, 154.166 216.404 C 152.474 215.219, 151.966 214.016, 152.194 211.731 C 152.619 207.454, 154.033 207.463, 157.301 211.766 C 159.910 215.200, 159.983 215.540, 158.360 216.726 C 156.885 217.805, 157.641 218, 163.292 218 L 169.966 218 165.392 213.250 C 162.876 210.637, 159.973 207.327, 158.942 205.893 L 157.068 203.287 161.534 198.626 C 163.990 196.062, 166 193.860, 166.001 193.732 C 166.001 193.540, 158.521 193.707, 157.059 193.932 C 156.816 193.969, 157.405 194.576, 158.367 195.279 C 159.989 196.465, 159.852 196.906, 156.513 201.279 C 154.530 203.876, 152.704 206, 152.454 206 C 152.204 206, 152 203.780, 152 201.067 C 152 196.953, 152.344 196.025, 154.075 195.476 C 157.267 194.463, 155.701 193.830, 149.574 193.656 C 144.227 193.505, 142.337 194.425, 145.500 195.638 C 147.756 196.504, 147.690 215.521, 145.428 216.389 C 142.308 217.587, 140.285 214.934, 136.024 204.061 C 133.640 197.977, 131.325 193, 130.880 193 C 130.435 193, 129.651 193.787, 129.138 194.750 M 171 194.281 C 171 194.711, 171.675 195.322, 172.500 195.638 C 174.874 196.549, 174.656 214.781, 172.250 216.608 C 170.737 217.757, 171.375 217.941, 176.973 217.968 C 183.112 217.998, 183.331 217.920, 181.223 216.443 C 179.565 215.282, 179 213.885, 179 210.943 L 179 207 184.500 207 L 190 207 190 211.450 C 190 214.634, 189.502 216.191, 188.250 216.920 C 186.929 217.690, 188.078 217.947, 192.941 217.970 C 198.376 217.995, 199.112 217.802, 197.652 216.735 C 196.176 215.656, 195.964 214.014, 196.211 205.566 C 196.410 198.747, 196.889 195.533, 197.750 195.248 C 198.534 194.988, 199 195.796, 199 197.417 C 199 200.470, 200.541 200.863, 201.290 198 C 201.690 196.468, 202.654 196, 205.406 196 L 209 196 209 205 C 209 212.667, 208.704 214.296, 207 216 L 205 218 211.250 217.968 C 216.662 217.941, 217.265 217.758, 215.750 216.608 C 214.296 215.504, 214 213.648, 214 205.640 L 214 196 217.094 196 C 219.346 196, 220.329 196.544, 220.710 198 C 221.553 201.223, 223.155 200.295, 222.813 196.782 L 222.500 193.563 205 193.713 C 184.704 193.886, 186.015 193.779, 188.250 195.080 C 189.502 195.809, 190 197.366, 190 200.550 L 190 205 184.500 205 L 179 205 179 200.567 C 179 196.959, 179.386 196.012, 181.075 195.476 C 182.217 195.114, 182.925 194.592, 182.649 194.316 C 181.809 193.476, 171 193.443, 171 194.281 M 75.730 202.750 C 75.453 203.713, 74.903 205.287, 74.506 206.250 C 73.908 207.703, 74.331 208, 77 208 C 79.669 208, 80.092 207.703, 79.494 206.250 C 79.097 205.287, 78.547 203.713, 78.270 202.750 C 77.993 201.787, 77.422 201, 77 201 C 76.578 201, 76.007 201.787, 75.730 202.750 M 127.730 202.750 C 127.453 203.713, 126.903 205.287, 126.506 206.250 C 125.908 207.703, 126.331 208, 129 208 C 131.669 208, 132.092 207.703, 131.494 206.250 C 131.097 205.287, 130.547 203.713, 130.270 202.750 C 129.993 201.787, 129.422 201, 129 201 C 128.578 201, 128.007 201.787, 127.730 202.750" stroke="none" fill="#050505" fill-rule="evenodd"/></svg>