<svg width="45" height="28" viewBox="0 0 45 28" fill="none" xmlns="http://www.w3.org/2000/svg">
<path d="M10.9375 0.8125L11.625 2.25C9.125 3 7.02083 4.4375 5.3125 6.5625C3.60417 8.6875 2.75 10.8542 2.75 13.0625C2.75 14.9792 3.39583 15.9375 4.6875 15.9375C5.1875 15.9375 5.77083 15.7917 6.4375 15.5C7.10417 15.1667 7.875 15 8.75 15C10.125 15 11.3333 15.5625 12.375 16.6875C13.4583 17.8125 14 19.2708 14 21.0625C14 22.9375 13.3958 24.4792 12.1875 25.6875C10.9792 26.8958 9.45833 27.5 7.625 27.5C5.45833 27.5 3.72917 26.5625 2.4375 24.6875C1.14583 22.8125 0.5 20.2083 0.5 16.875C0.5 12.5 1.54167 8.95833 3.625 6.25C5.70833 3.5 8.14583 1.6875 10.9375 0.8125ZM34.0625 27.6875L33.375 26.25C35.875 25.5 37.9792 24.0625 39.6875 21.9375C41.3958 19.7708 42.25 17.6042 42.25 15.4375C42.25 13.5208 41.6042 12.5625 40.3125 12.5625C39.8125 12.5625 39.2292 12.7292 38.5625 13.0625C37.8958 13.3542 37.125 13.5 36.25 13.5C34.875 13.5 33.6458 12.9375 32.5625 11.8125C31.5208 10.6875 31 9.22917 31 7.4375C31 5.5625 31.6042 4.02083 32.8125 2.8125C34.0208 1.60417 35.5417 1 37.375 1C39.5417 1 41.2708 1.9375 42.5625 3.8125C43.8542 5.6875 44.5 8.29167 44.5 11.625C44.5 16 43.4583 19.5625 41.375 22.3125C39.3333 25.0208 36.8958 26.8125 34.0625 27.6875Z" fill="#F17B33"/>
</svg>
